<mxfile host="Electron" modified="2023-10-02T19:15:05.656Z" agent="Mozilla/5.0 (Windows NT 10.0; Win64; x64) AppleWebKit/537.36 (KHTML, like Gecko) draw.io/22.0.0 Chrome/114.0.5735.289 Electron/25.8.3 Safari/537.36" etag="Gr4aCmUK7b3mmP3RSfYM" version="22.0.0" type="device">
  <diagram name="Page-1" id="4PpnQeFjUkxHpW1GrqRF">
    <mxGraphModel dx="880" dy="532" grid="1" gridSize="10" guides="1" tooltips="1" connect="1" arrows="1" fold="1" page="1" pageScale="1" pageWidth="850" pageHeight="1100" math="0" shadow="0">
      <root>
        <mxCell id="0" />
        <mxCell id="1" parent="0" />
        <mxCell id="Cbc8LsLjHn-CM6TQYjtW-5" value="" style="edgeStyle=orthogonalEdgeStyle;rounded=0;orthogonalLoop=1;jettySize=auto;html=1;" edge="1" parent="1" source="Cbc8LsLjHn-CM6TQYjtW-1" target="Cbc8LsLjHn-CM6TQYjtW-4">
          <mxGeometry relative="1" as="geometry" />
        </mxCell>
        <mxCell id="Cbc8LsLjHn-CM6TQYjtW-1" value="&lt;font style=&quot;font-size: 14px;&quot;&gt;Start&lt;/font&gt;" style="ellipse;whiteSpace=wrap;html=1;" vertex="1" parent="1">
          <mxGeometry x="360" y="40" width="120" height="80" as="geometry" />
        </mxCell>
        <mxCell id="Cbc8LsLjHn-CM6TQYjtW-7" value="" style="edgeStyle=orthogonalEdgeStyle;rounded=0;orthogonalLoop=1;jettySize=auto;html=1;" edge="1" parent="1" source="Cbc8LsLjHn-CM6TQYjtW-4" target="Cbc8LsLjHn-CM6TQYjtW-6">
          <mxGeometry relative="1" as="geometry" />
        </mxCell>
        <mxCell id="Cbc8LsLjHn-CM6TQYjtW-4" value="&lt;font style=&quot;font-size: 13px;&quot;&gt;x, y = [];&lt;br&gt;x_count, y_count, x_sum, y_sum, x_avg, y_avg, a, sq_a, sq_b, i = 0;&lt;/font&gt;" style="whiteSpace=wrap;html=1;" vertex="1" parent="1">
          <mxGeometry x="300" y="160" width="240" height="90" as="geometry" />
        </mxCell>
        <mxCell id="Cbc8LsLjHn-CM6TQYjtW-11" value="" style="edgeStyle=orthogonalEdgeStyle;rounded=0;orthogonalLoop=1;jettySize=auto;html=1;" edge="1" parent="1" source="Cbc8LsLjHn-CM6TQYjtW-6" target="Cbc8LsLjHn-CM6TQYjtW-10">
          <mxGeometry relative="1" as="geometry" />
        </mxCell>
        <mxCell id="Cbc8LsLjHn-CM6TQYjtW-6" value="&lt;font style=&quot;font-size: 13px;&quot;&gt;Enter x_count value&lt;/font&gt;" style="shape=parallelogram;perimeter=parallelogramPerimeter;whiteSpace=wrap;html=1;fixedSize=1;" vertex="1" parent="1">
          <mxGeometry x="330" y="310" width="180" height="70" as="geometry" />
        </mxCell>
        <mxCell id="Cbc8LsLjHn-CM6TQYjtW-14" value="" style="edgeStyle=orthogonalEdgeStyle;rounded=0;orthogonalLoop=1;jettySize=auto;html=1;" edge="1" parent="1" source="Cbc8LsLjHn-CM6TQYjtW-10" target="Cbc8LsLjHn-CM6TQYjtW-13">
          <mxGeometry relative="1" as="geometry" />
        </mxCell>
        <mxCell id="Cbc8LsLjHn-CM6TQYjtW-15" value="yes" style="edgeLabel;html=1;align=center;verticalAlign=middle;resizable=0;points=[];" vertex="1" connectable="0" parent="Cbc8LsLjHn-CM6TQYjtW-14">
          <mxGeometry x="-0.1333" relative="1" as="geometry">
            <mxPoint as="offset" />
          </mxGeometry>
        </mxCell>
        <mxCell id="Cbc8LsLjHn-CM6TQYjtW-29" style="edgeStyle=orthogonalEdgeStyle;rounded=0;orthogonalLoop=1;jettySize=auto;html=1;" edge="1" parent="1" source="Cbc8LsLjHn-CM6TQYjtW-10">
          <mxGeometry relative="1" as="geometry">
            <mxPoint x="420" y="850" as="targetPoint" />
            <Array as="points">
              <mxPoint x="240" y="535" />
              <mxPoint x="240" y="850" />
            </Array>
          </mxGeometry>
        </mxCell>
        <mxCell id="Cbc8LsLjHn-CM6TQYjtW-30" value="no" style="edgeLabel;html=1;align=center;verticalAlign=middle;resizable=0;points=[];" vertex="1" connectable="0" parent="Cbc8LsLjHn-CM6TQYjtW-29">
          <mxGeometry x="-0.1049" y="-2" relative="1" as="geometry">
            <mxPoint as="offset" />
          </mxGeometry>
        </mxCell>
        <mxCell id="Cbc8LsLjHn-CM6TQYjtW-10" value="i &amp;lt; x_count" style="rhombus;whiteSpace=wrap;html=1;" vertex="1" parent="1">
          <mxGeometry x="355" y="490" width="130" height="90" as="geometry" />
        </mxCell>
        <mxCell id="Cbc8LsLjHn-CM6TQYjtW-17" value="" style="edgeStyle=orthogonalEdgeStyle;rounded=0;orthogonalLoop=1;jettySize=auto;html=1;" edge="1" parent="1" source="Cbc8LsLjHn-CM6TQYjtW-13" target="Cbc8LsLjHn-CM6TQYjtW-16">
          <mxGeometry relative="1" as="geometry" />
        </mxCell>
        <mxCell id="Cbc8LsLjHn-CM6TQYjtW-13" value="&lt;font style=&quot;font-size: 13px;&quot;&gt;Enter x[i] value&lt;/font&gt;" style="shape=parallelogram;perimeter=parallelogramPerimeter;whiteSpace=wrap;html=1;fixedSize=1;" vertex="1" parent="1">
          <mxGeometry x="330" y="640" width="180" height="60" as="geometry" />
        </mxCell>
        <mxCell id="Cbc8LsLjHn-CM6TQYjtW-19" value="" style="edgeStyle=orthogonalEdgeStyle;rounded=0;orthogonalLoop=1;jettySize=auto;html=1;" edge="1" parent="1" source="Cbc8LsLjHn-CM6TQYjtW-16" target="Cbc8LsLjHn-CM6TQYjtW-18">
          <mxGeometry relative="1" as="geometry" />
        </mxCell>
        <mxCell id="Cbc8LsLjHn-CM6TQYjtW-24" value="" style="edgeStyle=orthogonalEdgeStyle;rounded=0;orthogonalLoop=1;jettySize=auto;html=1;" edge="1" parent="1" source="Cbc8LsLjHn-CM6TQYjtW-16" target="Cbc8LsLjHn-CM6TQYjtW-23">
          <mxGeometry relative="1" as="geometry" />
        </mxCell>
        <mxCell id="Cbc8LsLjHn-CM6TQYjtW-16" value="&lt;font style=&quot;font-size: 13px;&quot;&gt;x_sum += x[i];&amp;nbsp;&lt;/font&gt;" style="whiteSpace=wrap;html=1;" vertex="1" parent="1">
          <mxGeometry x="360" y="760" width="120" height="60" as="geometry" />
        </mxCell>
        <mxCell id="Cbc8LsLjHn-CM6TQYjtW-20" style="edgeStyle=orthogonalEdgeStyle;rounded=0;orthogonalLoop=1;jettySize=auto;html=1;" edge="1" parent="1" source="Cbc8LsLjHn-CM6TQYjtW-18">
          <mxGeometry relative="1" as="geometry">
            <mxPoint x="420" y="440" as="targetPoint" />
            <Array as="points">
              <mxPoint x="620" y="440" />
            </Array>
          </mxGeometry>
        </mxCell>
        <mxCell id="Cbc8LsLjHn-CM6TQYjtW-18" value="&lt;font style=&quot;font-size: 13px;&quot;&gt;i++&lt;/font&gt;" style="whiteSpace=wrap;html=1;" vertex="1" parent="1">
          <mxGeometry x="560" y="760" width="120" height="60" as="geometry" />
        </mxCell>
        <mxCell id="Cbc8LsLjHn-CM6TQYjtW-46" value="" style="edgeStyle=orthogonalEdgeStyle;rounded=0;orthogonalLoop=1;jettySize=auto;html=1;" edge="1" parent="1" source="Cbc8LsLjHn-CM6TQYjtW-23" target="Cbc8LsLjHn-CM6TQYjtW-32">
          <mxGeometry relative="1" as="geometry" />
        </mxCell>
        <mxCell id="Cbc8LsLjHn-CM6TQYjtW-23" value="&lt;font style=&quot;font-size: 13px;&quot;&gt;x_avg = x_sum / x_count&lt;/font&gt;" style="whiteSpace=wrap;html=1;" vertex="1" parent="1">
          <mxGeometry x="340" y="900" width="160" height="60" as="geometry" />
        </mxCell>
        <mxCell id="Cbc8LsLjHn-CM6TQYjtW-31" value="" style="edgeStyle=orthogonalEdgeStyle;rounded=0;orthogonalLoop=1;jettySize=auto;html=1;" edge="1" parent="1" source="Cbc8LsLjHn-CM6TQYjtW-32" target="Cbc8LsLjHn-CM6TQYjtW-37">
          <mxGeometry relative="1" as="geometry" />
        </mxCell>
        <mxCell id="Cbc8LsLjHn-CM6TQYjtW-32" value="&lt;font style=&quot;font-size: 13px;&quot;&gt;Enter y_count value&lt;/font&gt;" style="shape=parallelogram;perimeter=parallelogramPerimeter;whiteSpace=wrap;html=1;fixedSize=1;" vertex="1" parent="1">
          <mxGeometry x="330" y="1020" width="180" height="70" as="geometry" />
        </mxCell>
        <mxCell id="Cbc8LsLjHn-CM6TQYjtW-33" value="" style="edgeStyle=orthogonalEdgeStyle;rounded=0;orthogonalLoop=1;jettySize=auto;html=1;" edge="1" parent="1" source="Cbc8LsLjHn-CM6TQYjtW-37" target="Cbc8LsLjHn-CM6TQYjtW-39">
          <mxGeometry relative="1" as="geometry" />
        </mxCell>
        <mxCell id="Cbc8LsLjHn-CM6TQYjtW-34" value="yes" style="edgeLabel;html=1;align=center;verticalAlign=middle;resizable=0;points=[];" vertex="1" connectable="0" parent="Cbc8LsLjHn-CM6TQYjtW-33">
          <mxGeometry x="-0.1333" relative="1" as="geometry">
            <mxPoint as="offset" />
          </mxGeometry>
        </mxCell>
        <mxCell id="Cbc8LsLjHn-CM6TQYjtW-35" style="edgeStyle=orthogonalEdgeStyle;rounded=0;orthogonalLoop=1;jettySize=auto;html=1;" edge="1" parent="1" source="Cbc8LsLjHn-CM6TQYjtW-37">
          <mxGeometry relative="1" as="geometry">
            <mxPoint x="420" y="1560" as="targetPoint" />
            <Array as="points">
              <mxPoint x="240" y="1245" />
              <mxPoint x="240" y="1560" />
            </Array>
          </mxGeometry>
        </mxCell>
        <mxCell id="Cbc8LsLjHn-CM6TQYjtW-36" value="no" style="edgeLabel;html=1;align=center;verticalAlign=middle;resizable=0;points=[];" vertex="1" connectable="0" parent="Cbc8LsLjHn-CM6TQYjtW-35">
          <mxGeometry x="-0.1049" y="-2" relative="1" as="geometry">
            <mxPoint as="offset" />
          </mxGeometry>
        </mxCell>
        <mxCell id="Cbc8LsLjHn-CM6TQYjtW-37" value="i &amp;lt; y_count" style="rhombus;whiteSpace=wrap;html=1;" vertex="1" parent="1">
          <mxGeometry x="355" y="1200" width="130" height="90" as="geometry" />
        </mxCell>
        <mxCell id="Cbc8LsLjHn-CM6TQYjtW-38" value="" style="edgeStyle=orthogonalEdgeStyle;rounded=0;orthogonalLoop=1;jettySize=auto;html=1;" edge="1" parent="1" source="Cbc8LsLjHn-CM6TQYjtW-39" target="Cbc8LsLjHn-CM6TQYjtW-42">
          <mxGeometry relative="1" as="geometry" />
        </mxCell>
        <mxCell id="Cbc8LsLjHn-CM6TQYjtW-39" value="&lt;font style=&quot;font-size: 13px;&quot;&gt;Enter y[i] value&lt;/font&gt;" style="shape=parallelogram;perimeter=parallelogramPerimeter;whiteSpace=wrap;html=1;fixedSize=1;" vertex="1" parent="1">
          <mxGeometry x="330" y="1350" width="180" height="60" as="geometry" />
        </mxCell>
        <mxCell id="Cbc8LsLjHn-CM6TQYjtW-40" value="" style="edgeStyle=orthogonalEdgeStyle;rounded=0;orthogonalLoop=1;jettySize=auto;html=1;" edge="1" parent="1" source="Cbc8LsLjHn-CM6TQYjtW-42" target="Cbc8LsLjHn-CM6TQYjtW-44">
          <mxGeometry relative="1" as="geometry" />
        </mxCell>
        <mxCell id="Cbc8LsLjHn-CM6TQYjtW-41" value="" style="edgeStyle=orthogonalEdgeStyle;rounded=0;orthogonalLoop=1;jettySize=auto;html=1;" edge="1" parent="1" source="Cbc8LsLjHn-CM6TQYjtW-42" target="Cbc8LsLjHn-CM6TQYjtW-45">
          <mxGeometry relative="1" as="geometry" />
        </mxCell>
        <mxCell id="Cbc8LsLjHn-CM6TQYjtW-42" value="&lt;font style=&quot;font-size: 13px;&quot;&gt;y_sum += y[i];&amp;nbsp;&lt;/font&gt;" style="whiteSpace=wrap;html=1;" vertex="1" parent="1">
          <mxGeometry x="360" y="1470" width="120" height="60" as="geometry" />
        </mxCell>
        <mxCell id="Cbc8LsLjHn-CM6TQYjtW-43" style="edgeStyle=orthogonalEdgeStyle;rounded=0;orthogonalLoop=1;jettySize=auto;html=1;" edge="1" parent="1" source="Cbc8LsLjHn-CM6TQYjtW-44">
          <mxGeometry relative="1" as="geometry">
            <mxPoint x="420" y="1150" as="targetPoint" />
            <Array as="points">
              <mxPoint x="620" y="1150" />
            </Array>
          </mxGeometry>
        </mxCell>
        <mxCell id="Cbc8LsLjHn-CM6TQYjtW-44" value="&lt;font style=&quot;font-size: 13px;&quot;&gt;i++&lt;/font&gt;" style="whiteSpace=wrap;html=1;" vertex="1" parent="1">
          <mxGeometry x="560" y="1470" width="120" height="60" as="geometry" />
        </mxCell>
        <mxCell id="Cbc8LsLjHn-CM6TQYjtW-45" value="&lt;font style=&quot;font-size: 13px;&quot;&gt;y_avg = y_sum / y_count&lt;/font&gt;" style="whiteSpace=wrap;html=1;" vertex="1" parent="1">
          <mxGeometry x="340" y="1610" width="160" height="60" as="geometry" />
        </mxCell>
        <mxCell id="Cbc8LsLjHn-CM6TQYjtW-47" value="" style="edgeStyle=orthogonalEdgeStyle;rounded=0;orthogonalLoop=1;jettySize=auto;html=1;exitX=0.5;exitY=1;exitDx=0;exitDy=0;" edge="1" parent="1" source="Cbc8LsLjHn-CM6TQYjtW-45" target="Cbc8LsLjHn-CM6TQYjtW-53">
          <mxGeometry relative="1" as="geometry">
            <mxPoint x="420" y="1810" as="sourcePoint" />
          </mxGeometry>
        </mxCell>
        <mxCell id="Cbc8LsLjHn-CM6TQYjtW-49" value="" style="edgeStyle=orthogonalEdgeStyle;rounded=0;orthogonalLoop=1;jettySize=auto;html=1;" edge="1" parent="1" source="Cbc8LsLjHn-CM6TQYjtW-53">
          <mxGeometry relative="1" as="geometry">
            <mxPoint x="420" y="1920" as="targetPoint" />
          </mxGeometry>
        </mxCell>
        <mxCell id="Cbc8LsLjHn-CM6TQYjtW-50" value="yes" style="edgeLabel;html=1;align=center;verticalAlign=middle;resizable=0;points=[];" vertex="1" connectable="0" parent="Cbc8LsLjHn-CM6TQYjtW-49">
          <mxGeometry x="-0.1333" relative="1" as="geometry">
            <mxPoint as="offset" />
          </mxGeometry>
        </mxCell>
        <mxCell id="Cbc8LsLjHn-CM6TQYjtW-51" style="edgeStyle=orthogonalEdgeStyle;rounded=0;orthogonalLoop=1;jettySize=auto;html=1;" edge="1" parent="1" source="Cbc8LsLjHn-CM6TQYjtW-53">
          <mxGeometry relative="1" as="geometry">
            <mxPoint x="420" y="2250" as="targetPoint" />
            <Array as="points">
              <mxPoint x="240" y="1815" />
              <mxPoint x="240" y="2250" />
              <mxPoint x="420" y="2250" />
            </Array>
          </mxGeometry>
        </mxCell>
        <mxCell id="Cbc8LsLjHn-CM6TQYjtW-52" value="no" style="edgeLabel;html=1;align=center;verticalAlign=middle;resizable=0;points=[];" vertex="1" connectable="0" parent="Cbc8LsLjHn-CM6TQYjtW-51">
          <mxGeometry x="-0.1049" y="-2" relative="1" as="geometry">
            <mxPoint as="offset" />
          </mxGeometry>
        </mxCell>
        <mxCell id="Cbc8LsLjHn-CM6TQYjtW-53" value="i &amp;lt; x_count" style="rhombus;whiteSpace=wrap;html=1;" vertex="1" parent="1">
          <mxGeometry x="355" y="1770" width="130" height="90" as="geometry" />
        </mxCell>
        <mxCell id="Cbc8LsLjHn-CM6TQYjtW-57" value="" style="edgeStyle=orthogonalEdgeStyle;rounded=0;orthogonalLoop=1;jettySize=auto;html=1;exitX=0.5;exitY=1;exitDx=0;exitDy=0;" edge="1" parent="1" source="Cbc8LsLjHn-CM6TQYjtW-67">
          <mxGeometry relative="1" as="geometry">
            <mxPoint x="420" y="2230" as="sourcePoint" />
            <mxPoint x="420" y="2300" as="targetPoint" />
          </mxGeometry>
        </mxCell>
        <mxCell id="Cbc8LsLjHn-CM6TQYjtW-59" style="edgeStyle=orthogonalEdgeStyle;rounded=0;orthogonalLoop=1;jettySize=auto;html=1;exitX=0.5;exitY=0;exitDx=0;exitDy=0;" edge="1" parent="1" source="Cbc8LsLjHn-CM6TQYjtW-60">
          <mxGeometry relative="1" as="geometry">
            <mxPoint x="420" y="1720" as="targetPoint" />
            <Array as="points">
              <mxPoint x="640" y="1720" />
            </Array>
          </mxGeometry>
        </mxCell>
        <mxCell id="Cbc8LsLjHn-CM6TQYjtW-60" value="&lt;font style=&quot;font-size: 13px;&quot;&gt;i++&lt;/font&gt;" style="whiteSpace=wrap;html=1;" vertex="1" parent="1">
          <mxGeometry x="580" y="2120" width="120" height="60" as="geometry" />
        </mxCell>
        <mxCell id="Cbc8LsLjHn-CM6TQYjtW-71" style="edgeStyle=orthogonalEdgeStyle;rounded=0;orthogonalLoop=1;jettySize=auto;html=1;entryX=0.5;entryY=0;entryDx=0;entryDy=0;" edge="1" parent="1" source="Cbc8LsLjHn-CM6TQYjtW-65" target="Cbc8LsLjHn-CM6TQYjtW-66">
          <mxGeometry relative="1" as="geometry" />
        </mxCell>
        <mxCell id="Cbc8LsLjHn-CM6TQYjtW-65" value="&lt;font style=&quot;font-size: 13px;&quot;&gt;a += (x[i] - x_avg) * (y[i] - y_avg)&lt;/font&gt;" style="rounded=0;whiteSpace=wrap;html=1;" vertex="1" parent="1">
          <mxGeometry x="320" y="1920" width="200" height="60" as="geometry" />
        </mxCell>
        <mxCell id="Cbc8LsLjHn-CM6TQYjtW-72" style="edgeStyle=orthogonalEdgeStyle;rounded=0;orthogonalLoop=1;jettySize=auto;html=1;entryX=0.5;entryY=0;entryDx=0;entryDy=0;" edge="1" parent="1" source="Cbc8LsLjHn-CM6TQYjtW-66" target="Cbc8LsLjHn-CM6TQYjtW-67">
          <mxGeometry relative="1" as="geometry" />
        </mxCell>
        <mxCell id="Cbc8LsLjHn-CM6TQYjtW-66" value="&lt;font style=&quot;font-size: 13px;&quot;&gt;sq_a += pow(x[i] - x_avg, 2)&lt;/font&gt;" style="rounded=0;whiteSpace=wrap;html=1;" vertex="1" parent="1">
          <mxGeometry x="320" y="2020" width="200" height="60" as="geometry" />
        </mxCell>
        <mxCell id="Cbc8LsLjHn-CM6TQYjtW-73" value="" style="edgeStyle=orthogonalEdgeStyle;rounded=0;orthogonalLoop=1;jettySize=auto;html=1;" edge="1" parent="1" source="Cbc8LsLjHn-CM6TQYjtW-67" target="Cbc8LsLjHn-CM6TQYjtW-60">
          <mxGeometry relative="1" as="geometry" />
        </mxCell>
        <mxCell id="Cbc8LsLjHn-CM6TQYjtW-67" value="&lt;font style=&quot;font-size: 13px;&quot;&gt;sq_b += pow(y[i] - y_avg, 2)&lt;/font&gt;" style="rounded=0;whiteSpace=wrap;html=1;" vertex="1" parent="1">
          <mxGeometry x="320" y="2120" width="200" height="60" as="geometry" />
        </mxCell>
        <mxCell id="Cbc8LsLjHn-CM6TQYjtW-76" value="" style="edgeStyle=orthogonalEdgeStyle;rounded=0;orthogonalLoop=1;jettySize=auto;html=1;" edge="1" parent="1" source="Cbc8LsLjHn-CM6TQYjtW-74" target="Cbc8LsLjHn-CM6TQYjtW-75">
          <mxGeometry relative="1" as="geometry" />
        </mxCell>
        <mxCell id="Cbc8LsLjHn-CM6TQYjtW-74" value="&lt;font style=&quot;font-size: 13px;&quot;&gt;a / sqrt(sq_a * sq_b)&lt;/font&gt;" style="shape=parallelogram;perimeter=parallelogramPerimeter;whiteSpace=wrap;html=1;fixedSize=1;" vertex="1" parent="1">
          <mxGeometry x="330" y="2300" width="180" height="60" as="geometry" />
        </mxCell>
        <mxCell id="Cbc8LsLjHn-CM6TQYjtW-75" value="&lt;font style=&quot;font-size: 13px;&quot;&gt;End&lt;/font&gt;" style="ellipse;whiteSpace=wrap;html=1;" vertex="1" parent="1">
          <mxGeometry x="335" y="2430" width="170" height="70" as="geometry" />
        </mxCell>
      </root>
    </mxGraphModel>
  </diagram>
</mxfile>
